<svg xmlns="http://www.w3.org/2000/svg" viewBox="0 0 1289.19 297.14">
  <defs>
    <style>
      .cls-1, .cls-2, .cls-3 {
        fill: #fff;
      }

      .cls-2, .cls-3 {
        stroke: #fff;
        stroke-miterlimit: 10;
      }

      .cls-2 {
        stroke-width: 3px;
      }
    </style>
  </defs>
  <title>supply_3</title>
  <g id="Capa_2" data-name="Capa 2">
    <g id="Capa_1-2" data-name="Capa 1">
      <path class="cls-1" d="M492.18,0,512,129,490.72,258H259.07L279.6,129,259.07,0ZM301.48,129a84,84,0,1,0,84-84A84,84,0,0,0,301.48,129Z"/>
      <path class="cls-1" d="M751.25,0l19.8,129L749.79,258H518.14l20.53-129L518.14,0ZM560.55,129a84,84,0,1,0,84-84A84,84,0,0,0,560.55,129Z"/>
      <path class="cls-1" d="M1010.32,0l19.8,129-21.26,129H777.22l20.52-129L777.22,0ZM819.62,129a84,84,0,1,0,84-84A84,84,0,0,0,819.62,129Z"/>
      <path class="cls-1" d="M701.53,143.83c-.43,4.14-.89,8.27-1.3,12.41-.56,5.61-3.13,8.46-8.7,9.18-1.65.21-1.92,1.29-2.46,2.4-4,8.37-15.07,9.79-20.72,2.68a4.22,4.22,0,0,1-1.06-1.67c-.56-3.62-4-3.52-6.23-4.9a1.34,1.34,0,0,0-1.42.21c-2.16,1.37-4.57,1.36-7,1.35-6.58,0-13.17,0-19.75,0a3.15,3.15,0,0,0-3.43,2.1c-2.21,4.8-6,7.48-11.42,7.44s-9-2.7-11-7.55a2.8,2.8,0,0,0-2.7-2c-4.91-.39-7.63-3.6-7.4-8.54.11-2.33.34-4.65.61-7,.16-1.31-.11-2-1.6-2.13-1.74-.17-3.09-1.1-2.93-3.06s1.56-2.73,3.31-2.76c4.58-.1,9.16-.09,13.74-.1q10,0,20,0c1.7,0,3.15-.41,4-2,1.4-2.64-.4-5.3-3.72-5.32-8.08-.05-16.16,0-24.25,0-.83,0-1.67,0-2.5,0a2.74,2.74,0,0,1-2.86-2.85c0-1.66,1.11-2.54,2.66-2.81a14.74,14.74,0,0,1,2.49-.1q12.51,0,25,0c1.57,0,3-.24,4-1.58a3.39,3.39,0,0,0,.5-3.74,3.26,3.26,0,0,0-3.17-2l-14,0H594.46c-.5,0-1,0-1.5,0-1.94-.07-3.78-.37-4-2.79-.19-1.84,1.28-3.09,4-3.11,9.92-.07,19.83,0,29.75-.05,3.41,0,6.83,0,10.25,0,2.66-.06,4-1.34,4-3.47s-1.51-3.35-4.12-3.36c-9.25,0-18.5,0-27.75-.06-1.13,0-3,1-3.16-1.52-.14-3.43.88-5.42,3.12-5.73a14.76,14.76,0,0,1,2,0q26.37,0,52.74,0c6.32,0,9.27,3.36,8.55,9.67a2.29,2.29,0,0,1,0,.25c-.37,3.6-.37,3.6,3.34,3.6,4.08,0,8.17.12,12.25,0,2.54-.1,4,.93,5.05,3.16,2.59,5.31,5.59,10.44,8,15.82,1,2.29,3.2,2.73,4.65,4.22Zm-13.81-1.52A64.94,64.94,0,0,1,680,142c-4-.61-6.63-3.44-6.57-7.49a86.17,86.17,0,0,1,.63-9.21c.63-5.26,1.24-4.85-4.82-4.88-1.54,0-2,.67-2.1,2.09-.16,2.66-.49,5.3-.73,8q-1.14,12.92-2.26,25.85c-.1,1.16-.25,2.57,1.12,3,1.59.53,1.52-1.19,2-2,2.62-4.34,6.35-6.8,11.48-6.68s8.45,2.71,10.55,7.15c.55,1.16,1.09,2.06,2.56,1.75a2.78,2.78,0,0,0,2.47-2.47c.44-4.21.76-8.45,1.14-12.67.14-1.47-.5-2.18-2-2.17C691.44,142.32,689.44,142.31,687.72,142.31Zm-10,26.89a6.46,6.46,0,0,0,6.66-6.3,6.15,6.15,0,0,0-6.18-6.4,6.47,6.47,0,0,0-6.53,6.45A6.1,6.1,0,0,0,677.73,169.2Zm-59.17-12.7a6.4,6.4,0,0,0-6.47,6.46,6,6,0,0,0,6,6.24,6.7,6.7,0,0,0,6.73-6.33A6.26,6.26,0,0,0,618.56,156.5Z"/>
      <g>
        <path class="cls-2" d="M361.3,82.63h45.54q9.81,9.32,19.63,18.64a2.66,2.66,0,0,1,1,2.11c0,3.39,0,6.78,0,10.16,0,1.47.13,2.72,1.42,3.62a3.32,3.32,0,0,1,.65.74,20.23,20.23,0,0,1,4.61,16.19A20,20,0,0,1,426.79,147c-.54.45-.6.77-.2,1.33.57.8,1.09,1.65,1.58,2.5.3.52.6.69,1.14.33s1.38-.86,2.07-1.27c1.27-.75,1.91-.63,2.71.6,2.12,3.27,4.26,6.53,6.33,9.82a38.17,38.17,0,0,1,3.68,6.18v3.24c-.86,2.84-2.68,4.69-5.68,5.05a6.74,6.74,0,0,1-6.93-3.54c-1.13-1.84-2.4-3.6-3.52-5.44a2.13,2.13,0,0,0-2.42-1.3,38,38,0,0,1-5.75,0c-.79,0-1,.29-1,1.06,0,2.4,0,4.8,0,7.2,0,1.65-.36,2-2,2h-63c-1.55,0-1.93-.37-1.93-1.88V94.77c0-1.48.45-1.93,1.93-1.94,1.89,0,3.78,0,5.67,0,.77,0,1.06-.25,1-1,0-2.52,0-5,0-7.56A1.72,1.72,0,0,1,361.3,82.63Zm2.22,40.93v27.81c0,3.06,0,6.12,0,9.18,0,.77.27,1.09,1.06,1s1.68,0,2.51,0q28.08,0,56.16,0c.4,0,.89.15,1.11-.35a1.38,1.38,0,0,0-.19-1.44c-.53-.73-1-1.48-1.48-2.25a1.64,1.64,0,0,1,.57-2.6c.72-.48,1.46-1,2.22-1.37.53-.3.68-.59.3-1.12s-.8-1.27-1.21-1.9c-.9-1.39-.88-1.35-2.38-.74-7.71,3.15-14.88,2.22-21.47-2.91a3.15,3.15,0,0,0-2-.72q-13.68,0-27.36,0a19.23,19.23,0,0,1-2.15-.1,1.32,1.32,0,0,1-1.24-1.41,1.38,1.38,0,0,1,1.22-1.53,6.46,6.46,0,0,1,1.25-.09h25.74c.57,0,.89,0,.44-.7a19.83,19.83,0,0,1-2.61-5.8c-.15-.6-.51-.78-1.11-.77q-7.2,0-14.4,0c-3,0-5.94,0-8.91,0a1.46,1.46,0,0,1-1.61-1.77c.13-.79.69-1.22,1.72-1.22,4,0,7.92,0,11.88,0h10.62c.46,0,1,0,.91-.64a9.56,9.56,0,0,1,0-2.33c.69-8.48,5.06-14.44,12.76-17.79,6-2.59,11.94-2.05,17.67,1,.86.46.89.45.9-.5V105.7c0-1.19,0-1.21-1.21-1.22H406.65c-1.64,0-2-.37-2-2q0-7.92,0-15.84c0-.81-.24-1.1-1.08-1.1q-19.35,0-38.7,0c-1.33,0-1.33,0-1.33,1.38Zm32.56,7.65a17.59,17.59,0,1,0,17.09-17.6A17.64,17.64,0,0,0,396.08,131.21Zm-41.2,2.61h0v36.89c0,1.09.06,1.13,1.2,1.13H386q14.4,0,28.79,0c.79,0,1.06-.27,1.05-1.05q-.07-2.61,0-5.22c0-.81-.32-1-1.07-1-7.32,0-14.64,0-22,0H362.44c-1.45,0-1.93-.47-1.93-1.86V120.34c0-7.8,0-15.6,0-23.4,0-.9-.34-1.15-1.17-1.12-1.08.05-2.16,0-3.24,0-1.23,0-1.24,0-1.24,1.27Zm82.64,38a3.53,3.53,0,0,0,3.11-5.29c-.49-.86-1.05-1.67-1.59-2.5L432.59,154c-.29-.45-.53-.87-1.19-.44-1.65,1.08-3.34,2.13-5,3.16-.44.28-.45.54-.18,1,2.69,4.15,5.34,8.32,8,12.46A3.77,3.77,0,0,0,437.52,171.86ZM407.75,87.64a3.72,3.72,0,0,0-.11.48c0,4.17,0,8.34,0,12.5,0,.71.34.85.95.85,4.26,0,8.52,0,12.78,0,.22,0,.49.1.67-.22Z"/>
        <path class="cls-3" d="M384.23,104.48H368.3c-1.53,0-2-.43-2-2q0-5.72,0-11.43c0-1.54.51-2,2.08-2h31.32a8,8,0,0,1,1,0,1.49,1.49,0,0,1,1.51,1.58q0,6.07,0,12.15c0,1.18-.6,1.67-1.86,1.67Zm.12-3h0c4.62,0,9.24,0,13.86,0,.73,0,1-.22,1-1q0-3.69,0-7.38c0-.75-.2-1.07-1-1.07q-13.9,0-27.81,0c-.76,0-1,.31-1,1,0,2.37,0,4.74,0,7.11,0,1.24.07,1.29,1.34,1.29Z"/>
        <path class="cls-3" d="M379.94,130.21h-9.53c-1.49,0-2-.45-2-1.91q0-8.85,0-17.71c0-1.37.5-1.84,2.05-1.86,3.11,0,6.23,0,9.35,0l9.35,0c1.94,0,2.41.47,2.41,2.38q0,8.58,0,17.17c0,1.47-.48,1.94-1.94,1.94Zm.09-18.37h0c-2.55,0-5.1,0-7.64,0-.7,0-1,.26-.95,1q0,6.61,0,13.22c0,.71.2,1,1,1,5.1,0,10.2,0,15.29,0,.66,0,.91-.25.91-.9q0-6.66,0-13.32c0-.75-.28-1-1-1C385.07,111.86,382.55,111.84,380,111.84Z"/>
        <path class="cls-3" d="M393.93,156.65H370.1a5.33,5.33,0,0,1-1-.08,1.37,1.37,0,0,1-1.21-1.53,1.32,1.32,0,0,1,1.25-1.4,16.15,16.15,0,0,1,2-.11h43c1.47,0,2.94,0,4.4.05A1.41,1.41,0,0,1,420,155.2c-.08.94-.72,1.45-1.91,1.46h-24.2Z"/>
        <path class="cls-3" d="M387.27,115.33a1.79,1.79,0,0,1-.65,1.35c-2.7,2.42-5.38,4.85-8.1,7.25a1.55,1.55,0,0,1-2.59-.33q-1.35-1.95-2.65-4a1.52,1.52,0,1,1,2.5-1.73,22.75,22.75,0,0,1,1.45,1.94c.42.66.76.56,1.26.11,2-1.83,4-3.63,6-5.44a1.66,1.66,0,0,1,1.87-.49A1.45,1.45,0,0,1,387.27,115.33Z"/>
      </g>
      <g>
        <polygon class="cls-1" points="941.52 162.74 884.7 162.74 860.82 108.16 846 108.16 846 101.33 865.29 101.33 889.17 155.92 941.52 155.92 941.52 162.74"/>
        <path class="cls-1" d="M907.41,179.8a10.24,10.24,0,1,1-10.24-10.23A10.25,10.25,0,0,1,907.41,179.8Z"/>
        <path class="cls-1" d="M941.52,179.8a10.24,10.24,0,1,1-10.23-10.23A10.24,10.24,0,0,1,941.52,179.8Z"/>
        <path class="cls-1" d="M931.29,135.45A30.64,30.64,0,0,1,902.47,115H880.11l13.65,34.12h47.76l7.88-19.69A30.42,30.42,0,0,1,931.29,135.45Z"/>
        <path class="cls-1" d="M931.29,80.86a23.89,23.89,0,1,0,23.88,23.89A23.9,23.9,0,0,0,931.29,80.86Zm-3.62,36L922.84,112l-7.23-7.23,4.82-4.83,7.24,7.24,14.47-14.47L947,97.51Z"/>
      </g>
      <path class="cls-1" d="M233.11,0,252.9,129,231.64,258H0L20.53,129,0,0ZM42.41,129a84,84,0,1,0,84-84A84,84,0,0,0,42.41,129Z"/>
      <path class="cls-1" d="M1269.4,0l19.79,129-21.26,129H1036.29l20.52-129L1036.29,0ZM1078.69,129a84,84,0,1,0,84-84A84,84,0,0,0,1078.69,129Z"/>
      <path class="cls-1" d="M1096,159.62c4.49-7.17,9-14.34,13.48-21.48,2.45-3.88,3.74-4.17,7.66-1.83q7.77,4.63,15.5,9.3c3.27,2,3.8,3.87,1.9,7.17q-6.39,11.1-12.9,22.14c-1.45,2.46-3.44,3.18-5.65,1.74-6.71-4.34-13.63-8.39-20-13.26Zm22,5.47a2.87,2.87,0,0,0-2.86-3,2.58,2.58,0,0,0-2.75,2.7,2.81,2.81,0,1,0,5.61.26Z"/>
      <path class="cls-1" d="M1234.25,163.4c-6.5,4.85-13.59,8.78-20.49,13-2,1.22-4,.33-5.06-1.63Q1202,162.9,1195.43,151c-1.18-2.14-.57-4.06,1.54-5.32,5.88-3.49,11.75-7,17.7-10.35,2.57-1.45,4.45-.82,6.1,1.9,4.53,7.46,9,14.95,13.48,22.44Zm-16.37,1.37A2.71,2.71,0,0,0,1215,162c-1.86,0-3.17,1-3.14,2.91a2.89,2.89,0,0,0,2.87,3C1216.62,168,1217.71,166.82,1217.88,164.77Z"/>
      <path class="cls-1" d="M1145.14,165c1.87,1.46,3.88,1.12,5.89.4,3.72-1.34,7.44-2.69,11.12-4.12a2.77,2.77,0,0,1,3.51.91c6.4,6.95,12.88,13.81,19.34,20.7.31.32.63.64.91,1,2,2.39,2.18,5,.53,6.56-1.8,1.77-4.29,1.53-6.67-.64l-1.18-1c-.91,3.39-2.62,5.48-6.36,4.44-.64-.18-1,.15-1.26.7a12.53,12.53,0,0,1-.92,1.64c-.49.68-1.62,1.47-2,1.17-3.08-2.68-5.38,2.94-8.2.7-1.05-.84-1.64-.12-2.4.19-2.23.88-4.23.95-5.57-1.48-.13-.23-.29-.65-.43-.65-3.3,0-4.89-3.31-7.76-4.06-2.2-.57-3.82-1.57-4.12-4a2.19,2.19,0,0,0-.8-1.64c-1.65-1.18-2.39-2.71-1.67-4.67s2.52-2.34,4.89-2.25a2.46,2.46,0,0,0-2.85-.56c-2.19,1.2-3.74.08-5.35-1.15-2.07-1.58-4.12-3.21-6.28-4.66-1.63-1.1-1.77-2.23-.81-3.85q4.32-7.31,8.52-14.7a2.41,2.41,0,0,1,3.14-1.29,57.51,57.51,0,0,0,10.17,2.61c.46.05,1,.2.94.74,0,.27-.38.61-.66.76-1.42.78-2.86,1.52-4.31,2.24a3.27,3.27,0,0,0-2,3.48,2.65,2.65,0,0,0,2.64,2.56Z"/>
      <path class="cls-1" d="M1145.17,165c-2.74-2.39-2.61-3.66.61-5.34,4.62-2.41,9.26-4.77,13.88-7.19a11.27,11.27,0,0,1,9.62-.67c3.45,1.29,7,2.3,10.4,3.72a11,11,0,0,0,9.3-.18c5.59-2.52,5.69-2.36,8.7,3,2.12,3.75,4.17,7.55,6.27,11.31.78,1.39,1,2.49-.94,3.1-5.4,1.72-9.91,5-14.46,8.24-1.85,1.3-3,1.24-4.59-.41-5.76-6.19-11.67-12.23-17.4-18.43-1.51-1.63-2.88-2.07-5-1.22-3.07,1.25-6.28,2.19-9.37,3.41a11.41,11.41,0,0,1-7.1.67Z"/>
      <g>
        <path class="cls-1" d="M1162.07,143.58q-6-8.61-12.07-17.21c-3.8-5.38-7.62-10.74-11.42-16.13-.34-.47-.83-.88-.85-1.56.65-.29,1,.23,1.45.48,7.24,4.26,14.49,8.5,21.69,12.83a2.64,2.64,0,0,0,3.12,0c7.15-4.28,14.35-8.49,21.53-12.72.46-.27.94-.51,1.65-.9a4.24,4.24,0,0,1-1.2,2.34q-11.06,15.61-22.13,31.2c-.38.54-.7,1.13-1,1.69Z"/>
        <path class="cls-1" d="M1187.73,103.09c.11.72-.41.91-.8,1.14l-23.08,13.67a2,2,0,0,1-2.2-.06q-11.39-6.75-22.78-13.45c-1-.57-1.22-1.1-.59-2.14q11.84-19.53,23.59-39.1c1-1.72,1.45-.67,2,.26q9.87,16.36,19.73,32.75c1.18,2,2.38,3.92,3.56,5.89C1187.39,102.41,1187.57,102.79,1187.73,103.09Z"/>
      </g>
      <g>
        <g>
          <path class="cls-1" d="M89.45,83.25c.75,0,1.51,0,2.27,0a3.6,3.6,0,0,1,3.68,3.23,62.73,62.73,0,0,0,2.26,9.92c1.45,4.44,4.07,8.14,7,11.71,7.22,8.83,16.41,15,26.57,19.9a114.59,114.59,0,0,0,20.13,7.33,122.58,122.58,0,0,0,21,3.83c1.08.1,2.16.23,3.25.35.6.07.92-.14.88-.8,0-.51,0-1,0-1.55a2.72,2.72,0,0,1,1.44-2.72,3,3,0,0,1,3.35.16c1.11.75,2.19,1.53,3.28,2.3l8.68,6.17a3,3,0,0,1,1.41,2.5,3.17,3.17,0,0,1-1.67,2.83c-3.81,2.6-7.66,5.13-11.42,7.8-2,1.4-5.07.62-5.14-2.38,0-.28,0-.55,0-.82,0-1.63,0-1.65-1.64-1.75A142.68,142.68,0,0,1,158.27,149a128.34,128.34,0,0,1-19.4-5.15,110.72,110.72,0,0,1-27-13.38,73.81,73.81,0,0,1-19.59-19.17A51.11,51.11,0,0,1,84,91.39a25.38,25.38,0,0,1-.49-4.6,3.41,3.41,0,0,1,3.32-3.52c.87,0,1.76,0,2.64,0Z"/>
          <path class="cls-1" d="M104.18,151v20.65c0,4.35-2.33,6.66-6.71,6.66H91.65c-4.06,0-6.44-2.28-6.63-6.34,0-.27,0-.55,0-.82V107.33a3.38,3.38,0,0,1,0-.45c.06-.34-.19-.88.22-1s.45.49.6.79A68.75,68.75,0,0,0,103.35,128a2.11,2.11,0,0,1,.84,1.79C104.17,136.84,104.18,143.94,104.18,151Z"/>
          <path class="cls-1" d="M111.41,153.5V135.68c0-.27,0-.54,0-.82,0-.51.27-.64.71-.37.85.53,1.69,1.06,2.55,1.58a109.69,109.69,0,0,0,15,7.64,1.46,1.46,0,0,1,1,1.56c0,8.85,0,17.7,0,26.55,0,4.05-2.51,6.51-6.54,6.52-1.94,0-3.89-.08-5.82,0-3.91.21-6.91-2.21-6.91-6.85Z"/>
          <path class="cls-1" d="M137.93,160.2v-12c0-1.25.06-1.29,1.21-.91a132.17,132.17,0,0,0,16.59,4.44c1.35.27,1.36.28,1.36,1.65q0,9.18,0,18.37a6.21,6.21,0,0,1-3.2,5.91,5.81,5.81,0,0,1-2.8.69c-2.33,0-4.67,0-7,0a5.89,5.89,0,0,1-6.15-6.12C137.9,168.21,137.93,164.2,137.93,160.2Z"/>
          <path class="cls-1" d="M164.34,163.34c0-3,0-5.94,0-8.9,0-.81.18-1.13,1.1-1,2.27.33,4.56.57,6.85.79a1.09,1.09,0,0,1,1.08,1,6.17,6.17,0,0,0,9.39,3.94c.49-.28.74-.21.73.39-.06,4.54.21,9.09-.13,13.62a5.57,5.57,0,0,1-5.43,5.15c-2.67.08-5.34.09-8,0a5.87,5.87,0,0,1-5.57-6.05C164.31,169.28,164.34,166.31,164.34,163.34Z"/>
        </g>
        <g>
          <path class="cls-1" d="M148.88,100.21c0,2.82,0,5.64,0,8.46a1.46,1.46,0,0,1-.84,1.45q-7.45,4.27-14.9,8.58c-.7.4-.9.29-.9-.54,0-5.83,0-11.65,0-17.47a1.15,1.15,0,0,1,.68-1.08l15-8.62c.81-.47,1-.38,1,.58Q148.89,95.89,148.88,100.21Z"/>
          <path class="cls-1" d="M115.16,100.12c0-2.82,0-5.64,0-8.46,0-1.08.14-1.15,1.07-.62,1.31.76,2.61,1.53,3.94,2.27a1.27,1.27,0,0,1,.71,1.25c0,1.78,0,3.57,0,5.36a1.27,1.27,0,0,0,.76,1.31c.94.49,1.86,1,2.75,1.59.63.39.84.3.83-.45,0-1.67,0-3.33,0-5,0-1,.13-1.1,1-.58,1.6.92,3.19,1.87,4.8,2.78a1.39,1.39,0,0,1,.79,1.38c0,5.64,0,11.28,0,16.93,0,1.17-.15,1.28-1.16.69-5-2.86-9.92-5.74-14.88-8.6a1.18,1.18,0,0,1-.6-1.21Q115.17,104.44,115.16,100.12Z"/>
          <path class="cls-1" d="M132,99.56c-.28-.14-.53-.25-.76-.38-1.63-.94-3.25-1.9-4.89-2.81-.67-.37-.63-.59,0-1,4.26-2.44,8.51-4.91,12.76-7.36a14.59,14.59,0,0,0,1.8-1,1.9,1.9,0,0,1,2.54,0c1.29.84,2.66,1.56,4,2.35,1.08.63,1.08.75,0,1.37l-12.14,7-2.59,1.5C132.49,99.35,132.24,99.44,132,99.56Z"/>
          <path class="cls-1" d="M121.31,93.37c-.17-.08-.34-.13-.5-.22-1.47-.85-3-1.68-4.41-2.55-.85-.5-.84-.65.07-1.18L129,82.18c.79-.45,1.58-.89,2.36-1.36a1.11,1.11,0,0,1,1.27,0q2.22,1.33,4.48,2.6c.67.36.51.59,0,.9-5.11,2.91-10.24,5.79-15.26,8.85C121.66,93.21,121.49,93.28,121.31,93.37Z"/>
          <path class="cls-1" d="M121.74,97.22c-.67-2.41.6-3.57,2.6-4.65,4.63-2.51,9.14-5.25,13.69-7.91a1.17,1.17,0,0,1,1.43.08c.49.38,1.45.45,1.46,1.05s-.9.68-1.41,1Q132.28,91,125,95.13a1.22,1.22,0,0,0-.71,1.23c0,1.48,0,3,0,4.45,0,.66-.19.86-.79.48a7.36,7.36,0,0,0-.94-.54,1.32,1.32,0,0,1-.86-1.44C121.77,98.61,121.74,97.92,121.74,97.22Z"/>
        </g>
        <g>
          <path class="cls-1" d="M164.61,107.37c0-1.79,0-3.59,0-5.38a.84.84,0,0,1,.49-.82l9.33-5.38c.58-.33.67-.28.67.4,0,3.57,0,7.15,0,10.72a.92.92,0,0,1-.53.91l-9.39,5.4c-.45.26-.56.19-.57-.4Z"/>
          <path class="cls-1" d="M164.32,107.4v5.33c0,.71-.1.78-.7.43-3.15-1.81-6.28-3.64-9.43-5.45a.63.63,0,0,1-.35-.6q0-5.53,0-11.06c0-.43.14-.58.55-.33.87.52,1.75,1,2.63,1.52a.8.8,0,0,1,.43.8c0,1.12,0,2.25,0,3.38a.77.77,0,0,0,.44.78c.61.32,1.21.66,1.79,1s.5.08.5-.32c0-1,0-2.06,0-3.09,0-.69.08-.73.67-.39,1,.57,2,1.16,3,1.72a.91.91,0,0,1,.52.92c0,1.77,0,3.55,0,5.33Z"/>
          <path class="cls-1" d="M174.69,95.17c-.06.21-.26.28-.42.37-1.81,1.06-3.63,2.1-5.45,3.16-1.29.74-2.59,1.47-3.87,2.24a.87.87,0,0,1-1,0c-1-.61-2-1.2-3.08-1.77-.46-.26-.32-.4,0-.6,2.69-1.54,5.36-3.09,8-4.64.51-.3,1-.58,1.54-.89a.66.66,0,0,1,.74,0c1.05.63,2.12,1.23,3.17,1.84C174.52,94.93,174.68,95,174.69,95.17Z"/>
          <path class="cls-1" d="M157.71,97.28l-.38-.2-2.73-1.57c-.49-.3-.5-.4,0-.69,2.92-1.69,5.87-3.34,8.76-5.1a1.76,1.76,0,0,1,2.25,0c.62.45,1.32.76,2,1.15.51.3.5.35,0,.65-1.93,1.1-3.86,2.19-5.77,3.3-1.21.7-2.4,1.42-3.6,2.13C158.05,97.1,157.88,97.19,157.71,97.28Z"/>
          <path class="cls-1" d="M168.79,91.62a7.64,7.64,0,0,1,1.27.78c.22.19-.14.28-.28.36l-5.25,3c-1.49.86-3,1.73-4.47,2.57a.75.75,0,0,0-.45.77c0,.88,0,1.76,0,2.64,0,.2.11.46-.12.57s-.38-.12-.56-.21-.26-.17-.4-.23a.82.82,0,0,1-.54-.9c0-.88,0-1.76,0-2.63a1,1,0,0,1,.57-1l9.27-5.35A2.14,2.14,0,0,1,168.79,91.62Z"/>
        </g>
        <g>
          <path class="cls-1" d="M168.08,123.34c0,1.24,0,2.48,0,3.73a.66.66,0,0,1-.37.64c-2.2,1.25-4.38,2.52-6.57,3.78-.31.18-.4.13-.4-.24,0-2.57,0-5.13,0-7.7a.51.51,0,0,1,.3-.48l6.6-3.8c.36-.21.44-.17.44.25Z"/>
          <path class="cls-1" d="M153.21,123.3c0-1.25,0-2.49,0-3.74,0-.47.06-.5.47-.27.58.34,1.15.68,1.74,1a.53.53,0,0,1,.31.54c0,.79,0,1.58,0,2.37a.58.58,0,0,0,.34.58c.41.21.82.45,1.21.7s.37.13.36-.2c0-.74,0-1.47,0-2.21,0-.45.06-.48.45-.25.7.4,1.38.81,2.09,1.2a.67.67,0,0,1,.38.67c0,2.48,0,5,0,7.43,0,.52-.06.56-.51.31l-6.56-3.8a.52.52,0,0,1-.27-.53C153.21,125.84,153.21,124.57,153.21,123.3Z"/>
          <path class="cls-1" d="M160.63,123.05l-.33-.17-2.16-1.24c-.3-.16-.28-.25,0-.41l5.62-3.25a7,7,0,0,0,.8-.47.84.84,0,0,1,1.12,0c.57.37,1.17.69,1.76,1s.48.33,0,.6l-5.35,3.09-1.15.66A3.13,3.13,0,0,1,160.63,123.05Z"/>
          <path class="cls-1" d="M155.92,120.32l-.22-.1c-.65-.37-1.3-.74-1.94-1.12-.38-.22-.38-.29,0-.52l5.52-3.19,1-.61a.5.5,0,0,1,.56,0c.65.38,1.31.77,2,1.14.29.16.22.26,0,.4-2.25,1.28-4.51,2.55-6.73,3.9Z"/>
          <path class="cls-1" d="M156.11,122c-.29-1.07.26-1.58,1.15-2,2-1.11,4-2.32,6-3.49a.51.51,0,0,1,.62,0c.22.17.64.2.65.47s-.4.3-.62.43q-3.19,1.86-6.39,3.69a.55.55,0,0,0-.32.54c0,.65,0,1.31,0,2,0,.29-.09.38-.35.21s-.27-.17-.42-.24a.56.56,0,0,1-.37-.63C156.12,122.63,156.11,122.32,156.11,122Z"/>
        </g>
      </g>
      <text/>    </g>
  </g>
</svg>
