<svg xmlns="http://www.w3.org/2000/svg" viewBox="0 0 1292.39 385.76">
  <defs>
    <style>
      .cls-1, .cls-2, .cls-3, .cls-8 {
        fill: #fff;
      }

      .cls-2, .cls-3, .cls-7 {
        stroke: #fff;
        stroke-miterlimit: 10;
      }

      .cls-2 {
        stroke-width: 3px;
      }

      .cls-4, .cls-8 {
        opacity: 0.86;
      }

      .cls-5 {
        font-size: 32px;
        fill: #29394a;
      }

      .cls-5, .cls-8 {
        font-family: Arial-BoldItalicMT, Arial;
        font-weight: 700;
        font-style: italic;
      }

      .cls-6 {
        letter-spacing: -0.04em;
      }

      .cls-7 {
        fill: none;
        stroke-width: 2px;
      }

      .cls-8 {
        font-size: 22px;
      }
    </style>
  </defs>
  <title>Recurso 19</title>
  <g id="Capa_2" data-name="Capa 2">
    <g id="Capa_1-2" data-name="Capa 1">
      <path class="cls-1" d="M495.38,0l19.79,129L493.91,258H262.27l20.52-129L262.27,0ZM304.67,123.05a84.05,84.05,0,1,0,84.05-84A84,84,0,0,0,304.67,123.05Z"/>
      <path class="cls-1" d="M754.45,0l19.79,129L753,258H521.34l20.53-129L521.34,0ZM563.75,123.05a84,84,0,1,0,84-84A84,84,0,0,0,563.75,123.05Z"/>
      <path class="cls-1" d="M1013.52,0l19.8,129-21.26,129H780.41l20.53-129L780.41,0ZM822.94,123.05a84,84,0,1,0,84-84A84,84,0,0,0,822.94,123.05Z"/>
      <path class="cls-1" d="M704.73,139.57c-.44,4.14-.9,8.27-1.31,12.4-.55,5.62-3.12,8.47-8.69,9.18-1.66.22-1.92,1.3-2.46,2.4-4,8.37-15.07,9.8-20.72,2.69a4.22,4.22,0,0,1-1.06-1.67c-.56-3.62-4-3.52-6.24-4.9a1.29,1.29,0,0,0-1.41.21c-2.16,1.37-4.57,1.35-7,1.34-6.59,0-13.17,0-19.75,0a3.15,3.15,0,0,0-3.43,2.1c-2.21,4.8-6,7.49-11.42,7.45s-9-2.7-11-7.55a2.78,2.78,0,0,0-2.7-2c-4.91-.39-7.64-3.61-7.4-8.55.11-2.32.34-4.65.61-7,.16-1.31-.11-2-1.6-2.14-1.74-.16-3.09-1.09-2.93-3.05s1.56-2.73,3.3-2.77c4.59-.09,9.17-.09,13.75-.1q10,0,20,0c1.7,0,3.15-.4,4-2,1.4-2.65-.4-5.3-3.72-5.33-8.08-.05-16.17,0-24.25,0-.83,0-1.67,0-2.5,0a2.73,2.73,0,0,1-2.86-2.85c0-1.66,1.11-2.55,2.66-2.81a14.74,14.74,0,0,1,2.49-.1q12.49,0,25,0c1.57,0,3-.25,4-1.58a3.4,3.4,0,0,0,.5-3.74,3.27,3.27,0,0,0-3.18-2l-14,0H597.66c-.5,0-1,0-1.5,0-1.94-.07-3.78-.37-4-2.79-.19-1.85,1.28-3.09,4-3.11,9.91-.08,19.83,0,29.75-.06,3.41,0,6.83,0,10.24,0,2.66-.06,4-1.34,4-3.47s-1.51-3.35-4.12-3.36c-9.25,0-18.5,0-27.75-.07-1.13,0-3.06,1-3.16-1.51-.15-3.44.87-5.42,3.12-5.73a14.65,14.65,0,0,1,2-.06h52.75c6.32,0,9.27,3.36,8.55,9.66,0,.09,0,.17,0,.25-.37,3.6-.37,3.6,3.34,3.6,4.08,0,8.17.12,12.25,0,2.54-.1,4,.93,5,3.16,2.59,5.31,5.59,10.44,8,15.82,1,2.28,3.2,2.73,4.65,4.22ZM690.92,138a67.17,67.17,0,0,1-7.76-.26c-4-.61-6.63-3.44-6.57-7.49a88.65,88.65,0,0,1,.62-9.21c.64-5.26,1.25-4.86-4.82-4.88-1.53,0-2,.67-2.09,2.09-.17,2.66-.5,5.3-.73,7.95-.76,8.62-1.53,17.24-2.26,25.86-.1,1.16-.26,2.56,1.11,3,1.6.53,1.53-1.19,2-2,2.62-4.34,6.35-6.81,11.48-6.69s8.45,2.72,10.54,7.16c.55,1.16,1.1,2.05,2.57,1.75a2.79,2.79,0,0,0,2.47-2.47c.44-4.22.76-8.45,1.14-12.68.13-1.47-.51-2.18-2-2.16C694.64,138.06,692.64,138,690.92,138Zm-10,26.89a6.44,6.44,0,0,0,6.65-6.29,6.13,6.13,0,0,0-6.17-6.4,6.46,6.46,0,0,0-6.53,6.44A6.08,6.08,0,0,0,680.93,164.93Zm-59.17-12.69a6.39,6.39,0,0,0-6.47,6.46,6,6,0,0,0,6,6.23,6.67,6.67,0,0,0,6.72-6.32A6.24,6.24,0,0,0,621.76,152.24Z"/>
      <g>
        <path class="cls-2" d="M361.31,77.05h45.54q9.81,9.33,19.63,18.64a2.69,2.69,0,0,1,1,2.11c0,3.39,0,6.78,0,10.17,0,1.46.13,2.71,1.42,3.61a3.88,3.88,0,0,1,.65.74,20.23,20.23,0,0,1,4.61,16.19,20,20,0,0,1-7.29,12.93c-.54.45-.6.77-.21,1.33a29.54,29.54,0,0,1,1.59,2.51c.3.51.6.68,1.14.32s1.38-.85,2.07-1.27c1.27-.75,1.91-.62,2.71.6,2.12,3.27,4.26,6.53,6.33,9.83a38.37,38.37,0,0,1,3.68,6.17v3.24c-.87,2.84-2.68,4.7-5.68,5.05a6.71,6.71,0,0,1-6.93-3.54c-1.13-1.84-2.4-3.59-3.52-5.44a2.14,2.14,0,0,0-2.42-1.3,39.37,39.37,0,0,1-5.75.06c-.79,0-1,.28-1,1.05,0,2.4,0,4.8,0,7.2,0,1.65-.37,2-2,2h-63c-1.55,0-1.93-.37-1.93-1.89V89.19c0-1.48.45-1.93,1.93-1.94,1.88,0,3.77,0,5.66,0,.78,0,1.06-.25,1-1,0-2.52,0-5,0-7.56A1.72,1.72,0,0,1,361.31,77.05ZM363.53,118q0,13.9,0,27.81c0,3.06,0,6.12,0,9.18,0,.78.27,1.09,1.05,1s1.68,0,2.52,0h56.16c.39,0,.89.16,1.11-.35a1.37,1.37,0,0,0-.2-1.43c-.52-.73-1-1.49-1.47-2.26a1.62,1.62,0,0,1,.57-2.59c.72-.49,1.45-1,2.21-1.38.54-.29.69-.59.31-1.12s-.81-1.26-1.21-1.89c-.9-1.4-.88-1.36-2.38-.75-7.71,3.16-14.89,2.22-21.47-2.9a3.16,3.16,0,0,0-2.05-.73q-13.68,0-27.36,0a17.11,17.11,0,0,1-2.15-.11,1.31,1.31,0,0,1-1.24-1.4,1.37,1.37,0,0,1,1.22-1.53,5.76,5.76,0,0,1,1.25-.1h25.73c.58,0,.9,0,.45-.69A19.43,19.43,0,0,1,394,131c-.15-.61-.51-.78-1.11-.78-4.8,0-9.6,0-14.4,0-3,0-5.94,0-8.91,0a1.45,1.45,0,0,1-1.61-1.76c.13-.8.69-1.23,1.72-1.23h22.5c.45,0,1,0,.9-.65a9.47,9.47,0,0,1,.05-2.32c.69-8.49,5.06-14.45,12.76-17.8,6-2.59,11.94-2,17.67,1,.85.46.89.44.89-.5q0-3.42,0-6.84c0-1.2,0-1.22-1.21-1.22H406.66c-1.64,0-2-.36-2-2q0-7.91,0-15.83c0-.81-.23-1.11-1.07-1.11q-19.35,0-38.7,0c-1.33,0-1.33,0-1.33,1.38Q363.52,99.67,363.53,118Zm32.56,7.65A17.59,17.59,0,1,0,413.18,108,17.64,17.64,0,0,0,396.09,125.63Zm-41.21,2.61h0v36.89c0,1.09.05,1.13,1.2,1.13H386q14.4,0,28.79,0c.79,0,1.06-.26,1-1q-.06-2.61,0-5.22c0-.81-.31-1-1.06-1-7.32,0-14.64,0-22,0H362.44c-1.45,0-1.92-.46-1.92-1.86V114.76c0-7.8,0-15.6,0-23.4,0-.89-.33-1.15-1.16-1.12-1.08.05-2.16,0-3.24,0-1.23,0-1.25,0-1.25,1.26Q354.9,109.88,354.88,128.24Zm82.65,38a3.53,3.53,0,0,0,3.11-5.29c-.49-.85-1.06-1.67-1.59-2.5l-6.45-10.06c-.29-.45-.53-.87-1.19-.44-1.66,1.09-3.34,2.13-5,3.17-.44.27-.45.53-.18.94,2.68,4.15,5.34,8.32,8,12.46A3.74,3.74,0,0,0,437.53,166.28ZM407.75,82.06a3,3,0,0,0-.1.48c0,4.17,0,8.34,0,12.51,0,.7.35.84,1,.84,4.26,0,8.52,0,12.78,0,.21,0,.48.11.67-.22Z"/>
        <path class="cls-3" d="M384.24,98.9H368.31c-1.53,0-2-.43-2-2q0-5.7,0-11.42c0-1.54.52-2,2.09-2h31.31c.33,0,.66,0,1,0a1.48,1.48,0,0,1,1.5,1.58q0,6.08,0,12.15c0,1.18-.59,1.67-1.85,1.68Zm.12-3h0c4.62,0,9.24,0,13.86,0,.73,0,1-.23,1-1,0-2.46,0-4.92,0-7.38,0-.75-.2-1.07-1-1.07q-13.9,0-27.81,0c-.76,0-1,.31-1,1,0,2.37,0,4.74,0,7.11,0,1.24.08,1.29,1.35,1.29C375.3,95.9,379.83,95.89,384.36,95.89Z"/>
        <path class="cls-3" d="M380,124.63c-3.18,0-6.36,0-9.53,0-1.49,0-2-.45-2-1.9q0-8.87,0-17.72c0-1.37.5-1.84,2.05-1.86,3.11,0,6.23,0,9.35,0l9.35,0c1.93,0,2.41.47,2.41,2.38q0,8.58,0,17.17c0,1.47-.48,1.94-1.94,1.94C386.42,124.64,383.19,124.63,380,124.63Zm.09-18.36h0c-2.55,0-5.1,0-7.65,0-.7,0-.95.25-.95,1q0,6.61,0,13.23c0,.71.19,1,1,1q7.65,0,15.29,0c.66,0,.91-.25.9-.91,0-4.44,0-8.88,0-13.31,0-.76-.28-1-1-1C385.08,106.28,382.56,106.27,380,106.27Z"/>
        <path class="cls-3" d="M393.94,151.07H370.11a4.58,4.58,0,0,1-1-.08,1.36,1.36,0,0,1-1.21-1.53,1.32,1.32,0,0,1,1.25-1.4,18.43,18.43,0,0,1,2-.11h43c1.46,0,2.94,0,4.4.06a1.41,1.41,0,0,1,1.52,1.61c-.08.95-.72,1.46-1.91,1.46h-24.2Z"/>
        <path class="cls-3" d="M387.28,109.75a1.79,1.79,0,0,1-.65,1.35c-2.7,2.42-5.38,4.86-8.1,7.25a1.55,1.55,0,0,1-2.59-.33q-1.37-2-2.65-4a1.52,1.52,0,1,1,2.5-1.74c.5.64,1,1.26,1.45,1.94s.76.57,1.26.11c2-1.83,4-3.63,6-5.44a1.66,1.66,0,0,1,1.87-.49A1.5,1.5,0,0,1,387.28,109.75Z"/>
      </g>
      <g>
        <polygon class="cls-1" points="943.32 155.56 886.5 155.56 862.62 100.97 847.79 100.97 847.79 94.15 867.08 94.15 890.96 148.73 943.32 148.73 943.32 155.56"/>
        <path class="cls-1" d="M909.2,172.61A10.24,10.24,0,1,1,899,162.38,10.24,10.24,0,0,1,909.2,172.61Z"/>
        <path class="cls-1" d="M943.32,172.61a10.24,10.24,0,1,1-10.24-10.23A10.25,10.25,0,0,1,943.32,172.61Z"/>
        <path class="cls-1" d="M933.08,128.26a30.66,30.66,0,0,1-28.82-20.47H881.91l13.64,34.12h47.77l7.87-19.68A30.48,30.48,0,0,1,933.08,128.26Z"/>
        <path class="cls-1" d="M933.08,73.68A23.88,23.88,0,1,0,957,97.56,23.88,23.88,0,0,0,933.08,73.68Zm-3.62,35.94-4.82-4.83-7.24-7.23,4.83-4.83,7.23,7.24L943.94,85.5l4.82,4.82Z"/>
      </g>
      <path class="cls-1" d="M236.31,0,256.1,129,234.84,258H3.2L23.72,129,3.2,0ZM45.81,123.05a84,84,0,1,0,84.05-84A84,84,0,0,0,45.81,123.05Z"/>
      <path class="cls-1" d="M1272.59,0l19.8,129-21.26,129H1039.48L1060,129,1039.48,0ZM1082,123.05a84.05,84.05,0,1,0,84-84A84,84,0,0,0,1082,123.05Z"/>
      <path class="cls-1" d="M1099.73,151.3c4.49-7.16,9-14.33,13.47-21.47,2.45-3.88,3.75-4.17,7.67-1.83q7.76,4.63,15.5,9.29c3.26,2,3.8,3.88,1.9,7.18q-6.39,11.1-12.9,22.14c-1.45,2.46-3.44,3.17-5.65,1.74-6.72-4.35-13.63-8.39-20-13.27Zm22,5.47a2.86,2.86,0,0,0-2.86-3,2.59,2.59,0,0,0-2.76,2.7,2.82,2.82,0,1,0,5.62.25Z"/>
      <path class="cls-1" d="M1238,155.08c-6.5,4.86-13.59,8.78-20.5,13-2,1.22-3.94.33-5.06-1.63q-6.72-11.85-13.27-23.8c-1.17-2.15-.57-4.06,1.55-5.32,5.88-3.49,11.75-7,17.7-10.35,2.57-1.46,4.44-.82,6.1,1.9,4.53,7.45,9,14.95,13.48,22.43Zm-16.38,1.38a2.7,2.7,0,0,0-2.83-2.78c-1.87,0-3.17,1-3.15,2.91a2.91,2.91,0,0,0,2.88,3C1220.34,159.66,1221.43,158.51,1221.59,156.46Z"/>
      <path class="cls-1" d="M1148.85,156.69c1.87,1.46,3.89,1.12,5.89.4,3.73-1.34,7.44-2.69,11.13-4.12a2.76,2.76,0,0,1,3.51.91c6.39,6.94,12.88,13.8,19.34,20.69.3.33.62.65.91,1,2,2.38,2.17,5,.53,6.56-1.81,1.77-4.3,1.53-6.68-.64-.32-.3-.66-.58-1.17-1-.92,3.38-2.62,5.47-6.36,4.43-.64-.17-1,.16-1.27.71a10,10,0,0,1-.92,1.63c-.49.69-1.62,1.48-2,1.18-3.07-2.68-5.37,2.93-8.2.69-1-.83-1.63-.11-2.4.19-2.22.89-4.22,1-5.56-1.47-.13-.24-.29-.65-.44-.65-3.29,0-4.88-3.31-7.76-4.06-2.19-.57-3.81-1.57-4.11-4a2.17,2.17,0,0,0-.8-1.64c-1.65-1.18-2.4-2.71-1.67-4.68s2.52-2.34,4.89-2.25a2.5,2.5,0,0,0-2.85-.56c-2.19,1.21-3.74.09-5.36-1.14-2.07-1.58-4.11-3.21-6.27-4.67-1.63-1.09-1.77-2.23-.81-3.84,2.88-4.88,5.7-9.79,8.52-14.7a2.39,2.39,0,0,1,3.14-1.29,57.48,57.48,0,0,0,10.17,2.6c.45.06,1,.21.94.74,0,.28-.38.61-.67.77-1.42.78-2.86,1.52-4.3,2.24a3.27,3.27,0,0,0-2,3.48,2.66,2.66,0,0,0,2.65,2.55Z"/>
      <path class="cls-1" d="M1148.89,156.71c-2.74-2.38-2.61-3.65.6-5.33,4.62-2.41,9.27-4.77,13.89-7.19a11.22,11.22,0,0,1,9.61-.67c3.45,1.28,7,2.3,10.41,3.71a10.88,10.88,0,0,0,9.29-.18c5.6-2.51,5.69-2.36,8.71,3,2.12,3.76,4.17,7.55,6.27,11.32.77,1.39,1,2.49-.94,3.1-5.4,1.72-9.92,5-14.47,8.24-1.85,1.3-3,1.24-4.59-.42-5.75-6.18-11.66-12.22-17.4-18.42-1.5-1.64-2.87-2.07-4.94-1.23-3.08,1.26-6.28,2.2-9.37,3.41a11.38,11.38,0,0,1-7.11.68Z"/>
      <g>
        <path class="cls-1" d="M1165.27,134.82c-4-5.73-8-11.48-12.08-17.21-3.79-5.38-7.62-10.74-11.41-16.13-.34-.47-.83-.88-.85-1.56.64-.29,1,.23,1.45.48,7.24,4.26,14.49,8.5,21.69,12.83a2.63,2.63,0,0,0,3.12,0c7.15-4.29,14.35-8.5,21.53-12.73.46-.27.94-.51,1.64-.9a4.24,4.24,0,0,1-1.19,2.34q-11.06,15.61-22.13,31.21c-.38.53-.7,1.12-1,1.68Z"/>
        <path class="cls-1" d="M1190.93,94.34c.11.72-.42.91-.81,1.14q-11.52,6.84-23.07,13.66a2,2,0,0,1-2.2-.06q-11.38-6.75-22.78-13.45c-1-.57-1.22-1.1-.59-2.14q11.83-19.53,23.58-39.1c1-1.72,1.46-.67,2,.26L1186.8,87.4l3.57,5.89C1190.58,93.65,1190.77,94,1190.93,94.34Z"/>
      </g>
      <g>
        <g>
          <path class="cls-1" d="M85.82,78.4c.76,0,1.52,0,2.27,0a3.6,3.6,0,0,1,3.68,3.23A63.86,63.86,0,0,0,94,91.55c1.45,4.44,4.08,8.14,7,11.71,7.22,8.83,16.4,15,26.56,19.9a114.69,114.69,0,0,0,20.14,7.33,123.44,123.44,0,0,0,21,3.83c1.09.1,2.17.23,3.25.35.6.07.93-.14.89-.8s0-1,0-1.55a2.73,2.73,0,0,1,1.45-2.72,3,3,0,0,1,3.35.16c1.1.75,2.19,1.53,3.28,2.3l8.67,6.17a3.05,3.05,0,0,1,1.42,2.5,3.18,3.18,0,0,1-1.67,2.83c-3.81,2.6-7.67,5.13-11.43,7.79-2,1.41-5.07.63-5.13-2.37,0-.28,0-.55,0-.82,0-1.63,0-1.65-1.64-1.75a142.71,142.71,0,0,1-16.47-2.28A127.26,127.26,0,0,1,135.24,139a111.08,111.08,0,0,1-27-13.38,73.77,73.77,0,0,1-19.58-19.17,50.81,50.81,0,0,1-8.33-19.9,25.4,25.4,0,0,1-.5-4.6,3.42,3.42,0,0,1,3.32-3.52c.88-.06,1.76,0,2.64,0Z"/>
          <path class="cls-1" d="M100.55,146.18v20.65c0,4.35-2.32,6.66-6.7,6.66H88c-4.07,0-6.45-2.28-6.63-6.34,0-.28,0-.55,0-.82V102.48a3.38,3.38,0,0,1,0-.45c.06-.34-.19-.88.22-1s.45.49.61.79a69,69,0,0,0,17.5,21.26,2.14,2.14,0,0,1,.85,1.79C100.54,132,100.55,139.08,100.55,146.18Z"/>
          <path class="cls-1" d="M107.79,148.65V130.83c0-.27,0-.55,0-.82,0-.51.27-.64.71-.37l2.55,1.58a109.65,109.65,0,0,0,15,7.63,1.48,1.48,0,0,1,1.06,1.57c0,8.85,0,17.7,0,26.55,0,4.05-2.51,6.51-6.54,6.52-1.94,0-3.88-.09-5.82,0-3.9.21-6.9-2.21-6.9-6.85Z"/>
          <path class="cls-1" d="M134.3,155.35v-12c0-1.25.06-1.29,1.22-.91a132,132,0,0,0,16.58,4.44c1.36.27,1.36.27,1.36,1.65v18.37a6.2,6.2,0,0,1-3.2,5.91,5.62,5.62,0,0,1-2.79.68c-2.34,0-4.67,0-7,0a5.89,5.89,0,0,1-6.15-6.12C134.28,163.36,134.3,159.35,134.3,155.35Z"/>
          <path class="cls-1" d="M160.72,158.49c0-3,0-5.94,0-8.91,0-.81.17-1.12,1.09-1,2.28.33,4.57.57,6.85.79a1.08,1.08,0,0,1,1.08,1,6,6,0,0,0,5.5,4.9,6.11,6.11,0,0,0,3.9-1c.48-.28.73-.22.72.38,0,4.55.21,9.1-.13,13.63a5.54,5.54,0,0,1-5.43,5.14c-2.66.09-5.33.1-8,0a5.85,5.85,0,0,1-5.56-6C160.69,164.43,160.72,161.46,160.72,158.49Z"/>
        </g>
        <g>
          <path class="cls-1" d="M145.26,95.36c0,2.82,0,5.64,0,8.46a1.46,1.46,0,0,1-.83,1.45c-5,2.84-9.94,5.72-14.9,8.57-.7.41-.91.3-.91-.53,0-5.83,0-11.65,0-17.47a1.14,1.14,0,0,1,.68-1.08l15-8.62c.82-.47,1-.38,1,.57C145.27,89.6,145.26,92.48,145.26,95.36Z"/>
          <path class="cls-1" d="M111.53,95.27V86.8c0-1.07.14-1.14,1.07-.61,1.31.76,2.62,1.53,3.94,2.27a1.27,1.27,0,0,1,.72,1.24c0,1.79,0,3.58,0,5.37a1.28,1.28,0,0,0,.75,1.31q1.41.74,2.76,1.59c.62.39.83.3.82-.45,0-1.67,0-3.34,0-5,0-1,.14-1.1,1-.59,1.6.93,3.19,1.88,4.8,2.78a1.39,1.39,0,0,1,.78,1.39c0,5.64,0,11.28,0,16.92,0,1.18-.15,1.29-1.16.7-5-2.86-9.91-5.74-14.88-8.6a1.17,1.17,0,0,1-.59-1.21Z"/>
          <path class="cls-1" d="M128.36,94.71c-.27-.14-.52-.25-.75-.39-1.63-.93-3.25-1.89-4.9-2.8-.66-.37-.63-.59,0-1,4.26-2.44,8.51-4.91,12.76-7.36a16,16,0,0,0,1.8-1,1.9,1.9,0,0,1,2.54,0c1.3.84,2.67,1.56,4,2.35,1.08.63,1.09.75,0,1.37l-12.13,7c-.87.5-1.73,1-2.6,1.5C128.87,94.5,128.61,94.59,128.36,94.71Z"/>
          <path class="cls-1" d="M117.68,88.52c-.17-.08-.34-.14-.49-.22-1.48-.85-3-1.69-4.42-2.55-.85-.5-.84-.65.08-1.18l12.51-7.24c.79-.45,1.59-.89,2.36-1.37a1.13,1.13,0,0,1,1.27,0c1.49.88,3,1.75,4.49,2.59.66.37.5.6,0,.91-5.11,2.91-10.24,5.78-15.27,8.85C118,88.36,117.86,88.43,117.68,88.52Z"/>
          <path class="cls-1" d="M118.12,92.37c-.67-2.42.6-3.57,2.59-4.65,4.64-2.51,9.15-5.25,13.7-7.91a1.15,1.15,0,0,1,1.42.08c.49.38,1.45.45,1.46,1s-.9.68-1.41,1q-7.23,4.2-14.49,8.35a1.24,1.24,0,0,0-.71,1.24c0,1.48,0,3,0,4.45,0,.66-.19.86-.79.48a6.73,6.73,0,0,0-.94-.54,1.31,1.31,0,0,1-.85-1.44C118.14,93.76,118.12,93.06,118.12,92.37Z"/>
        </g>
        <g>
          <path class="cls-1" d="M161,102.52c0-1.79,0-3.59,0-5.39a.85.85,0,0,1,.48-.82c3.12-1.78,6.23-3.58,9.34-5.37.57-.33.67-.28.67.4,0,3.57,0,7.14,0,10.72a.92.92,0,0,1-.53.91c-3.13,1.79-6.25,3.6-9.38,5.4-.45.26-.57.19-.57-.4C161,106.15,161,104.34,161,102.52Z"/>
          <path class="cls-1" d="M160.7,102.55v5.33c0,.71-.1.78-.71.43l-9.42-5.45a.63.63,0,0,1-.35-.6V91.2c0-.43.13-.58.55-.33.87.52,1.74,1,2.62,1.52a.78.78,0,0,1,.43.8c0,1.12,0,2.25,0,3.38a.78.78,0,0,0,.45.78c.61.32,1.21.66,1.79,1s.49.07.49-.32q0-1.55,0-3.09c0-.69.08-.73.66-.39,1,.57,2,1.16,3,1.72a.9.9,0,0,1,.52.92c0,1.77,0,3.55,0,5.33Z"/>
          <path class="cls-1" d="M171.06,90.32c-.06.21-.25.28-.41.37l-5.46,3.15c-1.29.75-2.59,1.48-3.86,2.25a.89.89,0,0,1-1,0c-1-.61-2-1.2-3.07-1.77-.47-.26-.32-.4,0-.6l8-4.64,1.53-.89a.66.66,0,0,1,.75,0c1.05.63,2.11,1.23,3.17,1.84C170.89,90.08,171.05,90.14,171.06,90.32Z"/>
          <path class="cls-1" d="M154.09,92.42a3.35,3.35,0,0,1-.38-.19c-.91-.52-1.83-1-2.73-1.57-.5-.3-.5-.41,0-.69,2.92-1.69,5.88-3.34,8.77-5.1a1.76,1.76,0,0,1,2.25,0,22.71,22.71,0,0,0,2,1.15c.51.3.5.35,0,.65-1.92,1.1-3.85,2.19-5.77,3.3-1.21.69-2.4,1.42-3.6,2.13C154.42,92.25,154.25,92.33,154.09,92.42Z"/>
          <path class="cls-1" d="M165.16,86.77a8.14,8.14,0,0,1,1.28.78c.22.19-.15.28-.28.36l-5.26,3c-1.49.86-3,1.73-4.47,2.57a.77.77,0,0,0-.45.77c0,.88,0,1.76,0,2.64,0,.19.11.46-.12.57s-.38-.12-.56-.21-.26-.17-.4-.23a.83.83,0,0,1-.54-.9q0-1.32,0-2.64a1,1,0,0,1,.56-1c3.1-1.77,6.18-3.56,9.28-5.34A2.1,2.1,0,0,1,165.16,86.77Z"/>
        </g>
        <g>
          <path class="cls-1" d="M164.45,118.48c0,1.25,0,2.49,0,3.74a.66.66,0,0,1-.37.64c-2.19,1.25-4.38,2.52-6.57,3.78-.31.18-.4.13-.4-.24v-7.7a.5.5,0,0,1,.29-.48q3.32-1.89,6.61-3.8c.36-.21.43-.17.43.25C164.46,115.94,164.45,117.21,164.45,118.48Z"/>
          <path class="cls-1" d="M149.58,118.44v-3.73c0-.47.06-.5.47-.27.58.34,1.16.68,1.74,1a.58.58,0,0,1,.32.55c0,.79,0,1.58,0,2.37a.54.54,0,0,0,.33.57c.41.22.82.45,1.22.71s.36.13.36-.2c0-.74,0-1.47,0-2.21,0-.45.05-.48.45-.25.69.4,1.38.81,2.08,1.2a.67.67,0,0,1,.38.67c0,2.48,0,5,0,7.43,0,.52-.07.56-.52.3l-6.56-3.79a.52.52,0,0,1-.26-.53Z"/>
          <path class="cls-1" d="M157,118.2l-.33-.17c-.72-.41-1.43-.84-2.16-1.24-.29-.16-.28-.26,0-.42,1.88-1.07,3.75-2.16,5.63-3.24a6.86,6.86,0,0,0,.79-.47.84.84,0,0,1,1.12,0c.57.37,1.18.69,1.77,1s.47.34,0,.61l-5.35,3.09-1.14.66Z"/>
          <path class="cls-1" d="M152.29,115.47a1.36,1.36,0,0,1-.21-.1c-.65-.37-1.31-.74-2-1.12-.38-.22-.37-.29,0-.52l5.52-3.19c.35-.21.7-.4,1-.61a.5.5,0,0,1,.56,0c.66.39,1.31.78,2,1.15.29.16.22.26,0,.4-2.26,1.28-4.52,2.55-6.74,3.9A2.25,2.25,0,0,1,152.29,115.47Z"/>
          <path class="cls-1" d="M152.48,117.17c-.29-1.07.27-1.58,1.15-2,2-1.11,4-2.32,6-3.49a.51.51,0,0,1,.63,0c.21.17.64.2.64.46s-.4.31-.62.44l-6.39,3.68a.54.54,0,0,0-.31.55c0,.65,0,1.31,0,2,0,.29-.08.38-.35.21a3.38,3.38,0,0,0-.41-.24.58.58,0,0,1-.38-.63C152.5,117.78,152.48,117.47,152.48,117.17Z"/>
        </g>
      </g>
      <text class="cls-4"/>      <text class="cls-5" transform="translate(311.29 247.4)">Demanda</text>
      <text class="cls-5" transform="translate(597.03 247.4)">Cubre</text>
      <text class="cls-5" transform="translate(850.42 247.4)"><tspan class="cls-6">V</tspan><tspan x="20.16" y="0">alida</tspan></text>
      <text class="cls-5" transform="translate(1110.26 247.4)">Confía</text>
      <text class="cls-5" transform="translate(37.14 247.4)">Automatiza</text>
      <g>
        <g class="cls-4">
          <line class="cls-7" x1="1.02" y1="299.09" x2="22.24" y2="202.05"/>
          <line class="cls-7" y1="299.09" x2="11.66" y2="299.09"/>
        </g>
        <text class="cls-8" transform="translate(6.71 294.06)">Automatiza el proceso <tspan x="0" y="25">de reposicion</tspan></text>
      </g>
      <g>
        <text class="cls-8" transform="translate(261.23 308.92)">Demanda productos a <tspan x="0" y="25">proveedores</tspan></text>
        <g class="cls-4">
          <line class="cls-7" x1="256.41" y1="313.95" x2="275.39" y2="216.91"/>
          <line class="cls-7" x1="255.4" y1="313.95" x2="267.06" y2="313.95"/>
        </g>
      </g>
      <g>
        <text class="cls-8" transform="translate(523.33 321.8)">Cubre demandas de <tspan x="0" y="25">clientes</tspan></text>
        <g class="cls-4">
          <line class="cls-7" x1="520.39" y1="326.83" x2="531.03" y2="229.79"/>
          <line class="cls-7" x1="519.37" y1="326.83" x2="531.03" y2="326.83"/>
        </g>
      </g>
      <g>
        <text class="cls-8" transform="translate(781.94 336.99)"><tspan class="cls-6">V</tspan><tspan x="13.86" y="0">alida las operaciones </tspan><tspan x="0" y="25">exitosas</tspan></text>
        <g class="cls-4">
          <line class="cls-7" x1="779" y1="342.02" x2="789.64" y2="240.35"/>
          <line class="cls-7" x1="777.98" y1="342.02" x2="789.64" y2="342.02"/>
        </g>
      </g>
      <g>
        <text class="cls-8" transform="translate(1044.13 351.01)">Confia en el proceso <tspan x="0" y="25">basado en Blockchain</tspan></text>
        <g class="cls-4">
          <line class="cls-7" x1="1040.5" y1="354.9" x2="1051.14" y2="257.86"/>
          <line class="cls-7" x1="1039.48" y1="354.9" x2="1051.14" y2="354.9"/>
        </g>
      </g>
    </g>
  </g>
</svg>
