<svg xmlns="http://www.w3.org/2000/svg" viewBox="0 0 1289.19 307.17">
  <defs>
    <style>
      .cls-1, .cls-2, .cls-4, .cls-5 {
        fill: #fff;
      }

      .cls-1, .cls-3 {
        opacity: 0.15;
      }

      .cls-4, .cls-5 {
        stroke: #fff;
        stroke-miterlimit: 10;
      }

      .cls-4 {
        stroke-width: 3px;
      }

      .cls-6 {
        font-size: 32px;
        fill: #29394a;
        font-family: Arial-BoldItalicMT, Arial;
        font-weight: 700;
        font-style: italic;
      }

      .cls-7 {
        letter-spacing: -0.04em;
      }
    </style>
  </defs>
  <title>prueba</title>
  <g id="Capa_2" data-name="Capa 2">
    <g id="Capa_1-2" data-name="Capa 1">
      <path class="cls-1" d="M492.18,0,512,129,490.72,258H259.07L279.6,129,259.07,0ZM301.48,123.05a84,84,0,1,0,84-84A84,84,0,0,0,301.48,123.05Z"/>
      <path class="cls-2" d="M751.25,0l19.8,129L749.79,258H518.14l20.53-129L518.14,0ZM560.55,123.05a84,84,0,1,0,84-84A84,84,0,0,0,560.55,123.05Z"/>
      <path class="cls-1" d="M1010.32,0l19.8,129-21.26,129H777.22l20.52-129L777.22,0ZM819.74,123.05a84.05,84.05,0,1,0,84-84A84,84,0,0,0,819.74,123.05Z"/>
      <path class="cls-2" d="M701.53,139.57c-.43,4.14-.89,8.27-1.3,12.4-.56,5.62-3.13,8.47-8.7,9.18-1.65.22-1.92,1.3-2.46,2.4-4,8.37-15.07,9.8-20.72,2.69a4.22,4.22,0,0,1-1.06-1.67c-.56-3.62-4-3.52-6.23-4.9a1.3,1.3,0,0,0-1.42.21c-2.16,1.37-4.57,1.35-7,1.34-6.58,0-13.17,0-19.75,0a3.15,3.15,0,0,0-3.43,2.1c-2.21,4.8-6,7.49-11.42,7.45s-9-2.7-11-7.55a2.78,2.78,0,0,0-2.7-2c-4.91-.39-7.63-3.61-7.4-8.55.11-2.32.34-4.65.61-7,.16-1.31-.11-2-1.6-2.14-1.74-.16-3.09-1.09-2.93-3.05s1.56-2.73,3.31-2.77c4.58-.09,9.16-.09,13.74-.1q10,0,20,0c1.7,0,3.15-.4,4-2,1.4-2.65-.4-5.3-3.72-5.33-8.08-.05-16.16,0-24.25,0-.83,0-1.67,0-2.5,0a2.74,2.74,0,0,1-2.86-2.85c0-1.66,1.11-2.55,2.66-2.81a14.74,14.74,0,0,1,2.49-.1q12.51,0,25,0c1.57,0,3-.25,4-1.58a3.4,3.4,0,0,0,.5-3.74,3.26,3.26,0,0,0-3.17-2l-14,0H594.46c-.5,0-1,0-1.5,0-1.94-.07-3.78-.37-4-2.79-.19-1.85,1.28-3.09,4-3.11,9.92-.08,19.83,0,29.75-.06,3.41,0,6.83,0,10.25,0,2.66-.06,4-1.34,4-3.47s-1.51-3.35-4.12-3.36c-9.25,0-18.5,0-27.75-.07-1.13,0-3,1-3.16-1.51-.14-3.44.88-5.42,3.12-5.73a14.75,14.75,0,0,1,2-.06h52.74c6.32,0,9.27,3.36,8.55,9.66a2,2,0,0,1,0,.25c-.37,3.6-.37,3.6,3.34,3.6,4.08,0,8.17.12,12.25,0,2.54-.1,4,.93,5.05,3.16,2.59,5.31,5.59,10.44,8,15.82,1,2.28,3.2,2.73,4.65,4.22ZM687.72,138a67.17,67.17,0,0,1-7.76-.26c-4-.61-6.63-3.44-6.57-7.49a86,86,0,0,1,.63-9.21c.63-5.26,1.24-4.86-4.82-4.88-1.54,0-2,.67-2.1,2.09-.16,2.66-.49,5.3-.73,7.95q-1.14,12.93-2.26,25.86c-.1,1.16-.25,2.56,1.12,3,1.59.53,1.52-1.19,2-2,2.62-4.34,6.35-6.81,11.48-6.69s8.45,2.72,10.55,7.16c.55,1.16,1.09,2.05,2.56,1.75a2.79,2.79,0,0,0,2.47-2.47c.44-4.22.76-8.45,1.14-12.68.14-1.47-.5-2.18-2-2.16C691.44,138.06,689.44,138,687.72,138Zm-10,26.89a6.46,6.46,0,0,0,6.66-6.29,6.15,6.15,0,0,0-6.18-6.4,6.46,6.46,0,0,0-6.53,6.44A6.09,6.09,0,0,0,677.73,164.93Zm-59.17-12.69a6.39,6.39,0,0,0-6.47,6.46,6,6,0,0,0,6,6.23,6.68,6.68,0,0,0,6.73-6.32A6.26,6.26,0,0,0,618.56,152.24Z"/>
      <g class="cls-3">
        <path class="cls-4" d="M358.11,77.05h45.54q9.81,9.33,19.63,18.64a2.69,2.69,0,0,1,1,2.11c0,3.39,0,6.78,0,10.17,0,1.46.13,2.71,1.42,3.61a3.56,3.56,0,0,1,.65.74,20.23,20.23,0,0,1,4.61,16.19,20,20,0,0,1-7.29,12.93c-.54.45-.6.77-.2,1.33a29.44,29.44,0,0,1,1.58,2.51c.3.51.6.68,1.14.32s1.38-.85,2.08-1.27c1.26-.75,1.9-.62,2.7.6,2.12,3.27,4.26,6.53,6.33,9.83a37.66,37.66,0,0,1,3.68,6.17v3.24c-.86,2.84-2.68,4.7-5.68,5.05a6.72,6.72,0,0,1-6.93-3.54c-1.13-1.84-2.4-3.59-3.52-5.44a2.13,2.13,0,0,0-2.42-1.3,39.36,39.36,0,0,1-5.75.06c-.79,0-1,.28-1,1.05,0,2.4,0,4.8,0,7.2,0,1.65-.36,2-2,2h-63c-1.55,0-1.93-.37-1.93-1.89V89.19c0-1.48.45-1.93,1.93-1.94,1.89,0,3.78,0,5.67,0,.77,0,1.06-.25,1.05-1,0-2.52,0-5,0-7.56A1.72,1.72,0,0,1,358.11,77.05ZM360.33,118v27.81c0,3.06,0,6.12,0,9.18,0,.78.27,1.09,1.06,1s1.68,0,2.52,0h56.15c.4,0,.89.16,1.11-.35a1.36,1.36,0,0,0-.19-1.43c-.53-.73-1-1.49-1.48-2.26a1.63,1.63,0,0,1,.57-2.59c.72-.49,1.46-1,2.22-1.38.53-.29.68-.59.3-1.12s-.8-1.26-1.21-1.89c-.9-1.4-.88-1.36-2.38-.75-7.71,3.16-14.88,2.22-21.47-2.9a3.16,3.16,0,0,0-2-.73q-13.68,0-27.36,0a17.11,17.11,0,0,1-2.15-.11,1.32,1.32,0,0,1-1.24-1.4,1.38,1.38,0,0,1,1.22-1.53,5.76,5.76,0,0,1,1.25-.1h25.74c.57,0,.89,0,.44-.69a20,20,0,0,1-2.61-5.8c-.15-.61-.51-.78-1.11-.78-4.8,0-9.6,0-14.4,0-3,0-5.94,0-8.91,0a1.45,1.45,0,0,1-1.61-1.76c.13-.8.69-1.23,1.72-1.23H389c.46,0,1,0,.91-.65a9.47,9.47,0,0,1,0-2.32c.69-8.49,5.06-14.45,12.76-17.8,6-2.59,11.94-2,17.67,1,.86.46.89.44.9-.5v-6.84c0-1.2,0-1.22-1.21-1.22H403.46c-1.64,0-2-.36-2-2q0-7.91,0-15.83c0-.81-.24-1.11-1.08-1.11q-19.35,0-38.7,0c-1.33,0-1.33,0-1.33,1.38Zm32.56,7.65A17.59,17.59,0,1,0,410,108,17.64,17.64,0,0,0,392.89,125.63Zm-41.2,2.61h0v36.89c0,1.09.06,1.13,1.2,1.13h29.88q14.4,0,28.79,0c.79,0,1.06-.26,1.05-1q-.08-2.61,0-5.22c0-.81-.32-1-1.07-1-7.32,0-14.64,0-22,0H359.25c-1.45,0-1.93-.46-1.93-1.86V114.76c0-7.8,0-15.6,0-23.4,0-.89-.34-1.15-1.17-1.12-1.08.05-2.16,0-3.24,0-1.23,0-1.24,0-1.24,1.26Zm82.64,38a3.53,3.53,0,0,0,3.11-5.29c-.49-.85-1.05-1.67-1.59-2.5l-6.45-10.06c-.29-.45-.53-.87-1.19-.44-1.65,1.09-3.34,2.13-5,3.17-.44.27-.45.53-.18.94,2.69,4.15,5.34,8.32,8,12.46A3.77,3.77,0,0,0,434.33,166.28ZM404.56,82.06a3.72,3.72,0,0,0-.11.48c0,4.17,0,8.34,0,12.51,0,.7.34.84,1,.84,4.25,0,8.51,0,12.77,0,.22,0,.49.11.67-.22Z"/>
        <path class="cls-5" d="M381,98.9H365.11c-1.53,0-2-.43-2-2q0-5.7,0-11.42c0-1.54.51-2,2.08-2h31.32c.33,0,.66,0,1,0A1.49,1.49,0,0,1,399,85.07q0,6.08,0,12.15c0,1.18-.6,1.67-1.86,1.68Zm.12-3h0c4.62,0,9.24,0,13.86,0,.73,0,1-.23,1-1q0-3.69,0-7.38c0-.75-.2-1.07-1-1.07q-13.9,0-27.81,0c-.76,0-1,.31-1,1,0,2.37,0,4.74,0,7.11,0,1.24.07,1.29,1.34,1.29C372.1,95.9,376.63,95.89,381.16,95.89Z"/>
        <path class="cls-5" d="M376.75,124.63c-3.18,0-6.35,0-9.53,0-1.49,0-2-.45-2-1.9q0-8.87,0-17.72c0-1.37.5-1.84,2.05-1.86,3.11,0,6.23,0,9.35,0l9.35,0c1.94,0,2.41.47,2.41,2.38q0,8.58,0,17.17c0,1.47-.48,1.94-1.94,1.94C383.22,124.64,380,124.63,376.75,124.63Zm.09-18.36h0c-2.55,0-5.1,0-7.64,0-.7,0-1,.25-.95,1q0,6.61,0,13.23c0,.71.2,1,1,1q7.65,0,15.29,0c.66,0,.91-.25.91-.91q0-6.66,0-13.31c0-.76-.28-1-1-1C381.88,106.28,379.36,106.27,376.84,106.27Z"/>
        <path class="cls-5" d="M390.74,151.07H366.91a4.58,4.58,0,0,1-1-.08,1.36,1.36,0,0,1-1.21-1.53,1.32,1.32,0,0,1,1.25-1.4,18.43,18.43,0,0,1,2-.11h43c1.47,0,2.94,0,4.4.06a1.41,1.41,0,0,1,1.52,1.61c-.08.95-.72,1.46-1.91,1.46h-24.2Z"/>
        <path class="cls-5" d="M384.08,109.75a1.79,1.79,0,0,1-.65,1.35c-2.7,2.42-5.38,4.86-8.1,7.25a1.55,1.55,0,0,1-2.59-.33q-1.35-2-2.65-4a1.45,1.45,0,0,1,.32-2.14,1.44,1.44,0,0,1,2.18.4c.5.64,1,1.26,1.45,1.94s.76.57,1.26.11c2-1.83,4-3.63,6-5.44a1.66,1.66,0,0,1,1.87-.49A1.47,1.47,0,0,1,384.08,109.75Z"/>
      </g>
      <g class="cls-3">
        <g>
          <polygon class="cls-2" points="940.12 155.56 883.3 155.56 859.42 100.97 844.59 100.97 844.59 94.15 863.88 94.15 887.76 148.73 940.12 148.73 940.12 155.56"/>
          <path class="cls-2" d="M906,172.61a10.24,10.24,0,1,1-10.23-10.23A10.24,10.24,0,0,1,906,172.61Z"/>
          <path class="cls-2" d="M940.12,172.61a10.24,10.24,0,1,1-10.24-10.23A10.25,10.25,0,0,1,940.12,172.61Z"/>
          <path class="cls-2" d="M929.88,128.26a30.64,30.64,0,0,1-28.81-20.47H878.71l13.65,34.12h47.76L948,122.23A30.51,30.51,0,0,1,929.88,128.26Z"/>
          <path class="cls-2" d="M929.88,73.68a23.88,23.88,0,1,0,23.89,23.88A23.88,23.88,0,0,0,929.88,73.68Zm-3.61,35.94-4.83-4.83-7.23-7.23L919,92.73l7.24,7.24L940.74,85.5l4.82,4.82Z"/>
        </g>
      </g>
      <path class="cls-1" d="M233.11,0,252.9,129,231.64,258H0L20.53,129,0,0ZM42.61,123.05a84,84,0,1,0,84.05-84A84,84,0,0,0,42.61,123.05Z"/>
      <path class="cls-2" d="M1269.4,0l19.79,129-21.26,129H1036.29l20.52-129L1036.29,0ZM1078.8,123.05a84,84,0,1,0,84-84A84,84,0,0,0,1078.8,123.05Z"/>
      <path class="cls-2" d="M1096.53,151.3c4.49-7.16,9-14.33,13.47-21.47,2.45-3.88,3.75-4.17,7.67-1.83q7.75,4.63,15.5,9.29c3.26,2,3.8,3.88,1.9,7.18q-6.39,11.1-12.9,22.14c-1.45,2.46-3.44,3.17-5.65,1.74-6.71-4.35-13.63-8.39-20-13.27Zm22,5.47a2.86,2.86,0,0,0-2.86-3,2.57,2.57,0,0,0-2.75,2.7,2.81,2.81,0,1,0,5.61.25Z"/>
      <path class="cls-2" d="M1234.77,155.08c-6.5,4.86-13.59,8.78-20.49,13-2,1.22-4,.33-5.07-1.63q-6.72-11.85-13.27-23.8c-1.17-2.15-.56-4.06,1.55-5.32,5.88-3.49,11.75-7,17.7-10.35,2.57-1.46,4.44-.82,6.1,1.9,4.53,7.45,9,14.95,13.48,22.43Zm-16.37,1.38a2.72,2.72,0,0,0-2.84-2.78c-1.86,0-3.17,1-3.14,2.91a2.9,2.9,0,0,0,2.87,3C1217.14,159.66,1218.23,158.51,1218.4,156.46Z"/>
      <path class="cls-2" d="M1145.65,156.69c1.88,1.46,3.89,1.12,5.9.4,3.72-1.34,7.44-2.69,11.12-4.12a2.76,2.76,0,0,1,3.51.91c6.39,6.94,12.88,13.8,19.34,20.69.31.33.63.65.91,1,2,2.38,2.17,5,.53,6.56-1.8,1.77-4.29,1.53-6.68-.64-.32-.3-.65-.58-1.17-1-.92,3.38-2.62,5.47-6.36,4.43-.64-.17-1,.16-1.26.71a11.79,11.79,0,0,1-.92,1.63c-.49.69-1.63,1.48-2,1.18-3.08-2.68-5.38,2.93-8.21.69-1.05-.83-1.63-.11-2.39.19-2.23.89-4.23,1-5.57-1.47-.13-.24-.29-.65-.43-.65-3.3,0-4.89-3.31-7.77-4.06-2.19-.57-3.81-1.57-4.11-4a2.17,2.17,0,0,0-.8-1.64c-1.65-1.18-2.4-2.71-1.67-4.68s2.52-2.34,4.89-2.25a2.5,2.5,0,0,0-2.85-.56c-2.19,1.21-3.74.09-5.35-1.14-2.08-1.58-4.12-3.21-6.28-4.67-1.63-1.09-1.77-2.23-.81-3.84q4.32-7.32,8.52-14.7a2.39,2.39,0,0,1,3.14-1.29,57.48,57.48,0,0,0,10.17,2.6c.45.06,1,.21.94.74,0,.28-.38.61-.67.77-1.41.78-2.85,1.52-4.3,2.24a3.26,3.26,0,0,0-2,3.48,2.65,2.65,0,0,0,2.64,2.55Z"/>
      <path class="cls-2" d="M1145.69,156.71c-2.74-2.38-2.61-3.65.6-5.33,4.62-2.41,9.27-4.77,13.89-7.19a11.24,11.24,0,0,1,9.62-.67c3.45,1.28,7,2.3,10.4,3.71a10.9,10.9,0,0,0,9.3-.18c5.59-2.51,5.69-2.36,8.7,3,2.12,3.76,4.17,7.55,6.27,11.32.78,1.39,1,2.49-.94,3.1-5.4,1.72-9.92,5-14.47,8.24-1.85,1.3-3,1.24-4.58-.42-5.76-6.18-11.67-12.22-17.4-18.42-1.51-1.64-2.88-2.07-4.95-1.23-3.07,1.26-6.28,2.2-9.37,3.41a11.37,11.37,0,0,1-7.11.68Z"/>
      <g>
        <path class="cls-2" d="M1162.07,134.82q-6-8.59-12.07-17.21c-3.8-5.38-7.62-10.74-11.42-16.13-.34-.47-.83-.88-.85-1.56.65-.29,1,.23,1.45.48,7.24,4.26,14.49,8.5,21.69,12.83a2.63,2.63,0,0,0,3.12,0c7.15-4.29,14.35-8.5,21.53-12.73.46-.27.94-.51,1.65-.9a4.24,4.24,0,0,1-1.2,2.34q-11.06,15.61-22.13,31.21c-.38.53-.7,1.12-1,1.68Z"/>
        <path class="cls-2" d="M1187.73,94.34c.11.72-.41.91-.8,1.14l-23.08,13.66a2,2,0,0,1-2.2-.06q-11.39-6.75-22.78-13.45c-1-.57-1.22-1.1-.59-2.14q11.84-19.53,23.59-39.1c1-1.72,1.45-.67,2,.26l19.73,32.75c1.18,2,2.38,3.93,3.56,5.89C1187.39,93.65,1187.57,94,1187.73,94.34Z"/>
      </g>
      <g class="cls-3">
        <g>
          <path class="cls-2" d="M82.62,78.4c.76,0,1.52,0,2.28,0a3.61,3.61,0,0,1,3.68,3.23,61.64,61.64,0,0,0,2.26,9.92c1.44,4.44,4.07,8.14,7,11.71,7.22,8.83,16.4,15,26.56,19.9a114.69,114.69,0,0,0,20.14,7.33,123.44,123.44,0,0,0,21,3.83c1.09.1,2.17.23,3.25.35.61.07.93-.14.89-.8s0-1,0-1.55a2.71,2.71,0,0,1,1.44-2.72,3,3,0,0,1,3.35.16c1.1.75,2.19,1.53,3.28,2.3l8.67,6.17a3,3,0,0,1,1.42,2.5,3.18,3.18,0,0,1-1.67,2.83c-3.81,2.6-7.67,5.13-11.43,7.79-2,1.41-5.07.63-5.13-2.37,0-.28,0-.55,0-.82,0-1.63,0-1.65-1.64-1.75a142.71,142.71,0,0,1-16.47-2.28A127.57,127.57,0,0,1,132,139a110.84,110.84,0,0,1-27-13.38,73.81,73.81,0,0,1-19.59-19.17,51,51,0,0,1-8.33-19.9,24.52,24.52,0,0,1-.49-4.6A3.41,3.41,0,0,1,80,78.42c.88-.06,1.76,0,2.64,0Z"/>
          <path class="cls-2" d="M97.35,146.18q0,10.32,0,20.65c0,4.35-2.32,6.66-6.7,6.66H84.83c-4.07,0-6.45-2.28-6.63-6.34,0-.28,0-.55,0-.82V102.48a2.24,2.24,0,0,1,0-.45c0-.34-.2-.88.21-1s.45.49.61.79a69,69,0,0,0,17.5,21.26,2.14,2.14,0,0,1,.85,1.79C97.34,132,97.35,139.08,97.35,146.18Z"/>
          <path class="cls-2" d="M104.59,148.65V130.83c0-.27,0-.55,0-.82,0-.51.27-.64.72-.37l2.54,1.58a109.19,109.19,0,0,0,15,7.63,1.48,1.48,0,0,1,1,1.57c0,8.85,0,17.7,0,26.55,0,4.05-2.52,6.51-6.55,6.52-1.94,0-3.88-.09-5.82,0-3.9.21-6.9-2.21-6.9-6.85Z"/>
          <path class="cls-2" d="M131.11,155.35q0-6,0-12c0-1.25.06-1.29,1.21-.91a132.17,132.17,0,0,0,16.59,4.44c1.35.27,1.35.27,1.35,1.65q0,9.18,0,18.37a6.23,6.23,0,0,1-3.2,5.91,5.69,5.69,0,0,1-2.8.68c-2.33,0-4.67,0-7,0a5.9,5.9,0,0,1-6.16-6.12C131.08,163.36,131.11,159.35,131.11,155.35Z"/>
          <path class="cls-2" d="M157.52,158.49c0-3,0-5.94,0-8.91,0-.81.17-1.12,1.09-1,2.28.33,4.57.57,6.86.79a1.09,1.09,0,0,1,1.08,1,6,6,0,0,0,5.49,4.9,6.11,6.11,0,0,0,3.9-1c.49-.28.73-.22.73.38-.06,4.55.21,9.1-.13,13.63a5.56,5.56,0,0,1-5.44,5.14c-2.66.09-5.33.1-8,0a5.85,5.85,0,0,1-5.57-6C157.49,164.43,157.52,161.46,157.52,158.49Z"/>
        </g>
        <g>
          <path class="cls-2" d="M142.06,95.36c0,2.82,0,5.64,0,8.46a1.46,1.46,0,0,1-.83,1.45c-5,2.84-9.94,5.72-14.9,8.57-.7.41-.91.3-.91-.53,0-5.83,0-11.65,0-17.47a1.15,1.15,0,0,1,.68-1.08l15-8.62c.82-.47,1-.38,1,.57C142.07,89.6,142.06,92.48,142.06,95.36Z"/>
          <path class="cls-2" d="M108.33,95.27q0-4.23,0-8.47c0-1.07.13-1.14,1.06-.61,1.32.76,2.62,1.53,3.94,2.27a1.25,1.25,0,0,1,.72,1.24c0,1.79,0,3.58,0,5.37a1.28,1.28,0,0,0,.75,1.31c.94.49,1.87,1,2.76,1.59.62.39.83.3.82-.45,0-1.67,0-3.34,0-5,0-1,.13-1.1,1-.59,1.6.93,3.19,1.88,4.8,2.78A1.41,1.41,0,0,1,125,96.1c0,5.64,0,11.28,0,16.92,0,1.18-.15,1.29-1.17.7-5-2.86-9.91-5.74-14.88-8.6a1.18,1.18,0,0,1-.59-1.21C108.34,101,108.33,98.15,108.33,95.27Z"/>
          <path class="cls-2" d="M125.16,94.71c-.27-.14-.52-.25-.75-.39-1.63-.93-3.25-1.89-4.89-2.8-.67-.37-.63-.59,0-1,4.26-2.44,8.51-4.91,12.76-7.36a14.38,14.38,0,0,0,1.8-1,1.9,1.9,0,0,1,2.54,0c1.3.84,2.67,1.56,4,2.35,1.09.63,1.09.75,0,1.37l-12.13,7c-.87.5-1.73,1-2.6,1.5A7.23,7.23,0,0,1,125.16,94.71Z"/>
          <path class="cls-2" d="M114.49,88.52c-.18-.08-.35-.14-.5-.22-1.47-.85-2.95-1.69-4.41-2.55-.86-.5-.84-.65.07-1.18l12.51-7.24c.79-.45,1.59-.89,2.37-1.37a1.11,1.11,0,0,1,1.26,0c1.49.88,3,1.75,4.49,2.59.67.37.5.6,0,.91C125.14,82.33,120,85.2,115,88.27,114.83,88.36,114.66,88.43,114.49,88.52Z"/>
          <path class="cls-2" d="M114.92,92.37c-.67-2.42.6-3.57,2.59-4.65,4.64-2.51,9.15-5.25,13.7-7.91a1.15,1.15,0,0,1,1.42.08c.49.38,1.45.45,1.47,1s-.9.68-1.42,1q-7.23,4.2-14.49,8.35a1.24,1.24,0,0,0-.71,1.24c0,1.48,0,3,0,4.45,0,.66-.2.86-.79.48a7.47,7.47,0,0,0-.95-.54,1.31,1.31,0,0,1-.85-1.44C115,93.76,114.92,93.06,114.92,92.37Z"/>
        </g>
        <g>
          <path class="cls-2" d="M157.79,102.52c0-1.79,0-3.59,0-5.39a.86.86,0,0,1,.48-.82c3.12-1.78,6.23-3.58,9.34-5.37.58-.33.67-.28.67.4,0,3.57,0,7.14,0,10.72a.94.94,0,0,1-.53.91c-3.14,1.79-6.26,3.6-9.39,5.4-.45.26-.57.19-.57-.4C157.78,106.15,157.79,104.34,157.79,102.52Z"/>
          <path class="cls-2" d="M157.5,102.55v5.33c0,.71-.1.78-.7.43-3.15-1.81-6.29-3.64-9.43-5.45a.63.63,0,0,1-.35-.6V91.2c0-.43.14-.58.55-.33.87.52,1.74,1,2.63,1.52a.81.81,0,0,1,.43.8c0,1.12,0,2.25,0,3.38a.77.77,0,0,0,.44.78c.61.32,1.21.66,1.79,1s.5.07.49-.32q0-1.55,0-3.09c0-.69.08-.73.67-.39,1,.57,2,1.16,3,1.72a.92.92,0,0,1,.53.92c0,1.77,0,3.55,0,5.33Z"/>
          <path class="cls-2" d="M167.87,90.32c-.07.21-.26.28-.42.37L162,93.84c-1.29.75-2.58,1.48-3.86,2.25a.87.87,0,0,1-1,0c-1-.61-2-1.2-3.08-1.77-.47-.26-.32-.4,0-.6l8-4.64,1.53-.89a.66.66,0,0,1,.75,0c1,.63,2.11,1.23,3.17,1.84C167.7,90.08,167.85,90.14,167.87,90.32Z"/>
          <path class="cls-2" d="M150.89,92.42c-.14-.07-.27-.12-.38-.19-.91-.52-1.83-1-2.73-1.57-.5-.3-.5-.41,0-.69,2.93-1.69,5.88-3.34,8.77-5.1a1.76,1.76,0,0,1,2.25,0,22.71,22.71,0,0,0,2,1.15c.51.3.5.35,0,.65-1.92,1.1-3.85,2.19-5.77,3.3-1.21.69-2.4,1.42-3.6,2.13C151.22,92.25,151.05,92.33,150.89,92.42Z"/>
          <path class="cls-2" d="M162,86.77a7.64,7.64,0,0,1,1.27.78c.22.19-.15.28-.28.36l-5.26,3c-1.48.86-3,1.73-4.46,2.57a.78.78,0,0,0-.46.77c0,.88,0,1.76,0,2.64,0,.19.11.46-.12.57s-.38-.12-.56-.21-.26-.17-.4-.23a.83.83,0,0,1-.54-.9q0-1.32,0-2.64a1,1,0,0,1,.56-1c3.1-1.77,6.19-3.56,9.28-5.34A2.09,2.09,0,0,1,162,86.77Z"/>
        </g>
        <g>
          <path class="cls-2" d="M161.26,118.48c0,1.25,0,2.49,0,3.74a.64.64,0,0,1-.37.64c-2.19,1.25-4.38,2.52-6.57,3.78-.31.18-.4.13-.4-.24v-7.7a.51.51,0,0,1,.3-.48l6.6-3.8c.36-.21.43-.17.44.25Z"/>
          <path class="cls-2" d="M146.38,118.44v-3.73c0-.47.06-.5.47-.27.58.34,1.16.68,1.74,1a.56.56,0,0,1,.32.55c0,.79,0,1.58,0,2.37a.54.54,0,0,0,.33.57c.42.22.82.45,1.22.71s.37.13.36-.2c0-.74,0-1.47,0-2.21,0-.45.06-.48.45-.25.69.4,1.38.81,2.08,1.2a.65.65,0,0,1,.38.67c0,2.48,0,5,0,7.43,0,.52-.07.56-.52.3l-6.56-3.79a.53.53,0,0,1-.26-.53Z"/>
          <path class="cls-2" d="M153.81,118.2a3.58,3.58,0,0,1-.34-.17c-.72-.41-1.43-.84-2.16-1.24-.29-.16-.27-.26,0-.42,1.88-1.07,3.76-2.16,5.63-3.24a6.1,6.1,0,0,0,.79-.47.84.84,0,0,1,1.12,0c.58.37,1.18.69,1.77,1s.48.34,0,.61l-5.35,3.09-1.15.66Z"/>
          <path class="cls-2" d="M149.1,115.47l-.22-.1-1.95-1.12c-.37-.22-.37-.29,0-.52l5.52-3.19c.35-.21.7-.4,1-.61a.5.5,0,0,1,.56,0c.66.39,1.32.78,2,1.15.29.16.22.26,0,.4-2.26,1.28-4.52,2.55-6.73,3.9Z"/>
          <path class="cls-2" d="M149.29,117.17c-.3-1.07.26-1.58,1.14-2,2-1.11,4-2.32,6-3.49a.51.51,0,0,1,.63,0c.22.17.64.2.64.46s-.39.31-.62.44q-3.18,1.84-6.39,3.68a.54.54,0,0,0-.31.55c0,.65,0,1.31,0,2,0,.29-.08.38-.35.21a2.75,2.75,0,0,0-.41-.24.58.58,0,0,1-.38-.63C149.3,117.78,149.29,117.47,149.29,117.17Z"/>
        </g>
      </g>
      <text/>      <text class="cls-6" transform="translate(308.09 247.4)">Demanda</text>
      <text class="cls-6" transform="translate(593.83 247.4)">Cubre</text>
      <text class="cls-6" transform="translate(847.22 247.4)"><tspan class="cls-7">V</tspan><tspan x="20.16" y="0">alida</tspan></text>
      <text class="cls-6" transform="translate(1107.07 247.4)">Confía</text>
      <text class="cls-6" transform="translate(33.94 247.4)">Automatiza</text>
    </g>
  </g>
</svg>
