<?xml version="1.0" encoding="utf-8"?>
<!-- Generator: Adobe Illustrator 23.0.0, SVG Export Plug-In . SVG Version: 6.00 Build 0)  -->
<svg version="1.1" id="Capa_1" xmlns="http://www.w3.org/2000/svg" xmlns:xlink="http://www.w3.org/1999/xlink" x="0px" y="0px"
	 viewBox="0 0 595.3 841.9" style="enable-background:new 0 0 595.3 841.9;" xml:space="preserve">
<style type="text/css">
	.st0{fill:url(#SVGID_1_);}
	.st1{fill:url(#SVGID_2_);}
</style>
<g>
	<linearGradient id="SVGID_1_" gradientUnits="userSpaceOnUse" x1="147.7834" y1="192.8901" x2="463.6932" y2="192.8901">
		<stop  offset="0.1053" style="stop-color:#FFFFFF"/>
		<stop  offset="1" style="stop-color:#6B9DD1"/>
	</linearGradient>
	<path class="st0" d="M305.9,15c0.2,0,0.3,0,0.5,0c7.4,12.4,14.9,24.8,22.3,37.2c21.8,36.2,43.7,72.5,65.5,108.7
		c22.7,37.6,45.4,75.2,68,112.8c2,3.4,2,3.3-1.4,5.4c-42.3,25.2-84.5,50.3-126.8,75.5c-8.7,5.2-17.3,10.3-26,15.5
		c-1.5,0.9-2.6,0.9-4.1,0c-32.8-19.5-65.6-39-98.4-58.5c-18.4-11-36.9-21.9-55.3-32.8c-0.7-0.4-1.5-0.8-2.3-1.2
		c-0.1-0.5-0.2-0.7-0.3-1.2c0.6-0.8,1.2-1.6,1.7-2.5c7.3-12,14.6-24.1,21.9-36.1c33.3-55.2,66.6-110.4,99.9-165.6
		C282.8,53.2,294.4,34.1,305.9,15z"/>
	<linearGradient id="SVGID_2_" gradientUnits="userSpaceOnUse" x1="148" y1="411.2118" x2="463.4502" y2="411.2118">
		<stop  offset="0.1053" style="stop-color:#FFFFFF"/>
		<stop  offset="1" style="stop-color:#6B9DD1"/>
	</linearGradient>
	<path class="st1" d="M148,300.5c2.8,0.7,5.1,2.6,7.6,4.1c31.1,18.5,62.1,36.9,93.2,55.4c18.2,10.8,36.4,21.7,54.5,32.7
		c1.9,1.1,3.3,1.1,5.2,0c43.7-26.1,87.4-52.1,131.1-78.1c7.1-4.3,14.3-8.5,21.5-12.7c0.7-0.4,1.3-1.1,2.4-1c0.2,1-0.6,1.5-1,2.1
		c-26.7,37.6-53.5,75.2-80.3,112.8c-24.7,34.7-49.3,69.3-74,104c-2.1,2.9-2.1,2.9-4.2,0c-30.1-42.2-60.1-84.4-90.2-126.6
		c-21.5-30.2-43-60.3-64.5-90.5c-0.4-0.6-0.9-1.2-1.3-1.7C148,300.8,148,300.6,148,300.5z"/>
</g>
</svg>
